<svg id="bike_img" height="48" viewBox="0 0 512 512" width="48" xmlns="http://www.w3.org/2000/svg"><circle cx="82.526" cy="334.054" fill="#595959" r="75.026"/><path d="m82.526 259.029c-3.717 0-7.368.281-10.94.803 36.249 5.297 64.086 36.505 64.086 74.223s-27.837 68.926-64.086 74.223c3.572.522 7.223.803 10.94.803 41.436 0 75.026-33.59 75.026-75.026s-33.591-75.026-75.026-75.026z" fill="#454545"/><path d="m323.286 335.849c0-56.019 45.413-101.432 101.432-101.432 5.478 0 10.852.44 16.095 1.276l23.667-20.495c3.321-2.876 5.779-6.638 6.986-10.861 4.359-15.243 4.677-29.888-.383-43.739-.987-2.701-2.464-5.2-4.358-7.364-33.144-37.857-81.776-53.4-131.97-49.813-8.224.588-12.909 9.695-8.694 16.781l9.064 15.235c16.405 27.575 8.971 63.118-17.109 81.807l-24.291 17.407c-14.833 10.629-32.624 16.345-50.873 16.345h-16.472c-21.382 0-38.716 17.334-38.716 38.716v68.991c0 17.328 14.047 31.375 31.375 31.375h119.951c-9.943-15.685-15.704-34.284-15.704-54.229z" fill="#9bd069"/><path d="m412.729 235.126c-3.931-.464-7.929-.709-11.984-.709-56.019 0-101.432 45.413-101.432 101.432 0 19.946 5.761 38.544 15.704 54.229h23.973c-9.943-15.685-15.704-34.284-15.704-54.229 0-51.963 39.075-94.791 89.443-100.723z" fill="#8bc852"/><path d="m471.014 160.412c-.965-2.616-2.413-5.032-4.249-7.131-32.727-37.414-80.576-53.038-130.117-49.97 40.727 2.593 78.739 18.64 106.144 49.97 1.836 2.099 3.284 4.515 4.249 7.131 5.101 13.825 4.833 28.443.527 43.659-1.222 4.317-3.67 8.19-7.062 11.127l-22.452 19.443c2.203-.143 4.423-.223 6.662-.223 5.478 0 10.852.44 16.095 1.276l23.667-20.495c3.392-2.937 5.84-6.81 7.062-11.127 4.307-15.217 4.575-29.835-.526-43.66z" fill="#8bc852"/><circle cx="429.474" cy="334.054" fill="#595959" r="75.026"/><path d="m429.474 259.029c-4.042 0-8.005.329-11.874.944 35.792 5.692 63.152 36.687 63.152 74.081s-27.36 68.389-63.152 74.081c3.868.615 7.832.944 11.874.944 41.436 0 75.026-33.59 75.026-75.026 0-41.434-33.59-75.024-75.026-75.024z" fill="#454545"/><circle cx="429.474" cy="334.054" fill="#eaeaea" r="35.148"/><circle cx="82.526" cy="334.054" fill="#eaeaea" r="35.148"/><path d="m438.112 183.207c0 15.989 12.962 28.951 28.951 28.951.107 0 .213-.007.32-.008 1.897-2.382 3.322-5.122 4.159-8.079 4.306-15.216 4.574-29.836-.528-43.661-.817-2.214-1.984-4.283-3.435-6.14-.172-.003-.342-.013-.515-.013-15.99 0-28.952 12.961-28.952 28.95z" fill="#f6e738"/><path d="m366.275 252.94c-8.349 5.896-15.764 13.023-21.99 21.114l74.696 71.035c2.947 2.803 6.721 4.193 10.491 4.193 4.025 0 8.044-1.587 11.037-4.734 5.795-6.094 5.553-15.732-.541-21.528z" fill="#aaa"/><path d="m366.275 252.94c-8.349 5.896-15.765 13.023-21.99 21.114l13.103 12.461c6.233-8.086 13.655-15.206 22.01-21.096z" fill="#9b9b9b"/><path d="m189.127 279.177c4.59-16.26 19.524-28.181 37.253-28.181h16.472c18.249 0 36.039-5.716 50.873-16.345l13.538-9.701-89.619-34.255h-58.152c-5.968 0-11.757-2.037-16.409-5.775l-54.88-44.091h-44.869c-8.327 0-15.077 6.75-15.077 15.077 0 4.855 2.338 9.413 6.282 12.246l154.577 111.024z" fill="#595959"/><path d="m242.851 250.996c18.249 0 36.039-5.716 50.873-16.345l13.538-9.701-21.713-8.299-8.26 5.919c-14.833 10.629-32.624 16.345-50.873 16.345h-16.472c-17.814 0-32.809 12.036-37.32 28.416l16.491 11.844.011.002c4.59-16.26 19.524-28.181 37.253-28.181z" fill="#454545"/><path d="m189.126 279.177-.011-.002-20.066-14.412-89.69 55.171c-3.483 2.099-5.823 5.372-6.821 9.006-1.066 3.881-.599 8.177 1.643 11.896 4.342 7.201 13.701 9.52 20.903 5.178l92.596-56.972c-.182-3.583 1.264-10.02 1.446-9.865z" fill="#aaa"/><path d="m189.126 279.177-.011-.002-20.066-14.412-19.268 11.852 26.806 19.253 11.093-6.825c-.182-3.584 1.264-10.021 1.446-9.866z" fill="#9b9b9b"/><path d="m281.244 155.594c-26.84 0-50.406 14.003-63.8 35.1h.199l89.619 34.255 10.753-7.705c11.42-8.183 19.264-19.598 23.098-32.16-13.808-17.932-35.487-29.49-59.869-29.49z" fill="#9bd069"/><path d="m323.401 168.459c-2.107 16.5-10.824 32.052-25.29 42.417l-9.624 6.897 18.775 7.177 10.753-7.705c11.42-8.183 19.264-19.598 23.098-32.16-4.965-6.449-10.952-12.067-17.712-16.626z" fill="#8bc852"/><path d="m500.661 292.325c-2.099-3.571-6.694-4.767-10.266-2.668s-4.766 6.694-2.668 10.266c6.066 10.326 9.272 22.131 9.272 34.138 0 37.234-30.292 67.526-67.525 67.526-37.234 0-67.526-30.292-67.526-67.526 0-9.474 1.982-18.78 5.785-27.352l19.928 18.952c-.554 2.76-.836 5.57-.836 8.4 0 23.517 19.132 42.648 42.648 42.648s42.648-19.132 42.648-42.648-19.132-42.648-42.648-42.648c-3.558 0-7.066.449-10.484 1.316l-19.927-18.95c9.384-4.753 19.739-7.243 30.411-7.243 16.031 0 31.58 5.731 43.782 16.14 1.412 1.205 3.143 1.794 4.863 1.794 2.12 0 4.227-.894 5.71-2.633 2.688-3.151 2.313-7.886-.839-10.573-14.915-12.722-33.921-19.728-53.517-19.728-14.83 0-29.167 3.922-41.824 11.389l-9.227-8.775c13.672-7.777 29.472-12.226 46.294-12.226 4.977 0 9.994.398 14.914 1.182 2.189.35 4.417-.287 6.091-1.737l23.667-20.495c3.774-3.268 6.634-7.341 8.401-11.885 6.322-16.248 6.631-46.921-5.424-60.688-33.063-37.765-82.127-56.354-138.147-52.354-13.757.984-21.69 16.185-14.604 28.096l3.297 5.541h-15.65c-4.143 0-7.5 3.358-7.5 7.5s3.357 7.5 7.5 7.5h24.178c3.486 7.659 5.13 15.979 4.829 24.352-15.045-13.381-34.41-20.837-55.026-20.837-27.174 0-52.207 13.048-67.788 35.1h-53.965c-4.244 0-8.403-1.464-11.712-4.122l-54.876-44.09c-1.332-1.07-2.989-1.653-4.697-1.653h-44.869c-12.449 0-22.577 10.128-22.577 22.577 0 7.251 3.517 14.106 9.407 18.338l16.143 11.594c3.361 2.415 8.05 1.648 10.467-1.717 2.416-3.364 1.647-8.05-1.717-10.467l-16.142-11.594c-1.978-1.42-3.158-3.721-3.158-6.155 0-4.178 3.399-7.577 7.577-7.577h42.229l52.821 42.438c5.962 4.79 13.458 7.428 21.106 7.428h56.767l48.568 18.564 26.732 10.218c-1.392.721-19.418 16.52-48.707 16.52h-16.47c-16.492 0-32.15 8.863-40.559 24.079l-12.396-8.904c-.001-.001-.003-.002-.005-.003l-98.027-70.408c-3.363-2.416-8.05-1.648-10.467 1.716-2.416 3.364-1.647 8.051 1.717 10.467l88.878 63.837-16.167 9.945c-15.273-14.491-35.65-22.696-56.827-22.696-45.506.001-82.527 37.021-82.527 82.526s37.021 82.526 82.526 82.526 82.525-37.021 82.525-82.526c0-6.991-.894-13.914-2.64-20.658l17.753-10.923v56.229c0 21.437 17.439 38.876 38.875 38.876h36.136v4.002h-48.931c-4.143 0-7.5 3.357-7.5 7.5s3.357 7.5 7.5 7.5h56.431c4.143 0 7.5-3.357 7.5-7.5v-11.502h68.815c2.735 0 5.253-1.489 6.571-3.885s1.228-5.321-.236-7.631c-9.512-15.004-14.539-32.367-14.539-50.214 0-18.508 5.383-35.78 14.662-50.34l10.88 10.347c-6.149 11.755-9.38 24.839-9.38 38.198 0 45.505 37.021 82.526 82.526 82.526s82.526-37.02 82.526-82.525c0-14.675-3.921-29.108-11.339-41.735zm-43.538 41.735c0 15.245-12.403 27.648-27.648 27.648-13.321 0-24.471-9.471-27.074-22.032l11.413 10.853c4.243 4.035 9.805 6.258 15.659 6.258 6.198 0 12.201-2.575 16.472-7.066 4.184-4.398 6.403-10.163 6.251-16.232-.153-6.069-2.66-11.715-7.06-15.897l-11.412-10.853c13.235 2.05 23.399 13.521 23.399 27.321zm6.446-172.005c5.653 12.442 3.913 33.723-.111 42.307-10.118-1.719-17.846-10.548-17.846-21.148 0-10.629 7.77-19.476 17.957-21.159zm-182.325 1.045c19.941 0 38.463 8.511 51.412 23.485-7.528 19.529-22.243 26.267-26.483 29.924l-62.563-23.913-14.269-5.454c12.845-15.2 31.651-24.042 51.903-24.042zm-100.527 119.283c-.115.723-.229 1.517-.321 2.343l-66.663 41.016c-.024.015-.048.03-.073.045l-22.448 13.812c-3.648 2.2-8.408 1.021-10.607-2.627-1.104-1.831-1.399-3.976-.833-6.038.526-1.92 1.755-3.542 3.518-4.604l23.529-14.474c.021-.013.042-.026.063-.038l35.097-21.589c.013-.008.027-.017.04-.025l26.71-16.43zm-112.958 62.333c4.259 7.062 11.772 10.977 19.488 10.977 4.012 0 8.078-1.059 11.769-3.284l7.487-4.607c-4.776 8.302-13.731 13.908-23.977 13.908-15.245 0-27.648-12.403-27.648-27.648s12.403-27.648 27.648-27.648c1.358 0 2.701.107 4.024.3l-11.062 6.805c-5.015 3.022-8.631 7.797-10.182 13.444-1.64 5.974-.746 12.445 2.453 17.753zm82.293-10.656c0 37.234-30.292 67.526-67.525 67.526-37.235.001-67.527-30.291-67.527-67.526 0-37.233 30.292-67.525 67.526-67.525 15.973 0 31.379 5.722 43.483 15.904l-23.058 14.184c-6.241-3.421-13.212-5.211-20.425-5.211-23.517 0-42.648 19.132-42.648 42.648s19.132 42.648 42.648 42.648c22.748 0 41.39-17.902 42.585-40.357l23.788-14.636c.758 4.064 1.153 8.189 1.153 12.345zm176.247 48.525h-107.26c-13.165 0-23.875-10.711-23.875-23.876v-68.991c0-15.595 11.485-28.388 26.125-30.793 13.373-2.23 43.373 5.783 76.805-18.171 23.647-16.946 45.104-27.764 51.75-59.539 2.576-12.315 1.736-24.931-2.281-36.629h8.885c4.143 0 7.5-3.358 7.5-7.5s-3.357-7.5-7.5-7.5h-16.082l-7.859-13.211c-1.355-2.277.105-5.273 2.782-5.465 46.741-3.341 88.026 10.354 117.607 38.72-13.082 5.539-22.283 18.508-22.283 33.585 0 14.639 8.679 27.282 21.158 33.075l-13.283 11.503c-4.566-.577-9.183-.869-13.77-.869-60.002 0-108.932 48.734-108.932 108.932 0 16.271 3.607 32.2 10.513 46.729zm39.451-119.787 15.808 15.033c.007.006.013.013.02.019l53.221 50.612c1.496 1.422 2.348 3.342 2.4 5.404.052 2.063-.703 4.023-2.125 5.52-1.474 1.549-3.463 2.402-5.603 2.402-1.99 0-3.88-.756-5.323-2.127l-53.21-50.602c-.016-.016-.032-.031-.049-.046l-16.336-15.535c3.435-3.858 7.18-7.431 11.197-10.68z"/><path d="m256 340.71h-21.541c-4.143 0-7.5 3.357-7.5 7.5s3.357 7.5 7.5 7.5h21.541c4.143 0 7.5-3.357 7.5-7.5s-3.357-7.5-7.5-7.5z"/></svg>